{
    "asset" : {
        "generator" : "Khronos glTF Blender I/O v1.5.17",
        "version" : "2.0"
    },
    "scene" : 0,
    "scenes" : [
        {
            "name" : "Scene",
            "nodes" : [
                0,
                1,
                2
            ]
        }
    ],
    "nodes" : [
        {
            "name" : "Light",
            "rotation" : [
                0.16907575726509094,
                0.7558803558349609,
                -0.27217137813568115,
                0.570947527885437
            ],
            "translation" : [
                14.289804458618164,
                10.13066291809082,
                -3.9060449600219727
            ]
        },
        {
            "name" : "Camera",
            "rotation" : [
                0.514312744140625,
                0.4855058491230011,
                -0.4893619418144226,
                0.510187566280365
            ],
            "translation" : [
                17.484649658203125,
                5.714387893676758,
                -5.0507121086120605
            ]
        },
        {
            "mesh" : 0,
            "name" : "Sphere.007",
            "rotation" : [
                -0.9126522541046143,
                0,
                0,
                -0.408736914396286
            ],
            "scale" : [
                0.5,
                0.5,
                0.5
            ],
            "translation" : [
                0,
                5.806206226348877,
                -5.900139331817627
            ]
        }
    ],
    "animations" : [
        {
            "channels" : [
                {
                    "sampler" : 0,
                    "target" : {
                        "node" : 2,
                        "path" : "rotation"
                    }
                }
            ],
            "name" : "Sphere.007Action",
            "samplers" : [
                {
                    "input" : 12,
                    "interpolation" : "LINEAR",
                    "output" : 13
                }
            ]
        }
    ],
    "materials" : [
        {
            "doubleSided" : true,
            "name" : "Material.003",
            "pbrMetallicRoughness" : {
                "baseColorFactor" : [
                    1,
                    0,
                    0,
                    1
                ],
                "metallicFactor" : 0,
                "roughnessFactor" : 0.5
            }
        },
        {
            "doubleSided" : true,
            "name" : "Material.002",
            "pbrMetallicRoughness" : {
                "baseColorFactor" : [
                    0.36723756790161133,
                    0.36723756790161133,
                    0.36723756790161133,
                    1
                ],
                "metallicFactor" : 0,
                "roughnessFactor" : 0.5
            }
        },
        {
            "doubleSided" : true,
            "name" : "Material.001",
            "pbrMetallicRoughness" : {
                "baseColorFactor" : [
                    0,
                    0,
                    1,
                    1
                ],
                "metallicFactor" : 0,
                "roughnessFactor" : 0.5
            }
        }
    ],
    "meshes" : [
        {
            "name" : "Sphere.008",
            "primitives" : [
                {
                    "attributes" : {
                        "POSITION" : 0,
                        "NORMAL" : 1,
                        "TEXCOORD_0" : 2
                    },
                    "indices" : 3,
                    "material" : 0
                },
                {
                    "attributes" : {
                        "POSITION" : 4,
                        "NORMAL" : 5,
                        "TEXCOORD_0" : 6
                    },
                    "indices" : 7,
                    "material" : 1
                },
                {
                    "attributes" : {
                        "POSITION" : 8,
                        "NORMAL" : 9,
                        "TEXCOORD_0" : 10
                    },
                    "indices" : 11,
                    "material" : 2
                }
            ]
        }
    ],
    "accessors" : [
        {
            "bufferView" : 0,
            "componentType" : 5126,
            "count" : 4472,
            "max" : [
                1.0000001192092896,
                9.497222900390625,
                9.594322204589844
            ],
            "min" : [
                -1,
                -9.509180068969727,
                -9.754486083984375
            ],
            "type" : "VEC3"
        },
        {
            "bufferView" : 1,
            "componentType" : 5126,
            "count" : 4472,
            "type" : "VEC3"
        },
        {
            "bufferView" : 2,
            "componentType" : 5126,
            "count" : 4472,
            "type" : "VEC2"
        },
        {
            "bufferView" : 3,
            "componentType" : 5123,
            "count" : 23040,
            "type" : "SCALAR"
        },
        {
            "bufferView" : 4,
            "componentType" : 5126,
            "count" : 2080,
            "max" : [
                0.39999985694885254,
                12.342340469360352,
                12.506624221801758
            ],
            "min" : [
                -0.4000002145767212,
                -12.36909294128418,
                -12.609697341918945
            ],
            "type" : "VEC3"
        },
        {
            "bufferView" : 5,
            "componentType" : 5126,
            "count" : 2080,
            "type" : "VEC3"
        },
        {
            "bufferView" : 6,
            "componentType" : 5126,
            "count" : 2080,
            "type" : "VEC2"
        },
        {
            "bufferView" : 7,
            "componentType" : 5123,
            "count" : 5952,
            "type" : "SCALAR"
        },
        {
            "bufferView" : 8,
            "componentType" : 5126,
            "count" : 8944,
            "max" : [
                0.9999999403953552,
                13.187652587890625,
                13.374531745910645
            ],
            "min" : [
                -1,
                -13.237001419067383,
                -13.458221435546875
            ],
            "type" : "VEC3"
        },
        {
            "bufferView" : 9,
            "componentType" : 5126,
            "count" : 8944,
            "type" : "VEC3"
        },
        {
            "bufferView" : 10,
            "componentType" : 5126,
            "count" : 8944,
            "type" : "VEC2"
        },
        {
            "bufferView" : 11,
            "componentType" : 5123,
            "count" : 46080,
            "type" : "SCALAR"
        },
        {
            "bufferView" : 12,
            "componentType" : 5126,
            "count" : 251,
            "max" : [
                10.416666666666666
            ],
            "min" : [
                0
            ],
            "type" : "SCALAR"
        },
        {
            "bufferView" : 13,
            "componentType" : 5126,
            "count" : 251,
            "type" : "VEC4"
        }
    ],
    "bufferViews" : [
        {
            "buffer" : 0,
            "byteLength" : 53664,
            "byteOffset" : 0
        },
        {
            "buffer" : 0,
            "byteLength" : 53664,
            "byteOffset" : 53664
        },
        {
            "buffer" : 0,
            "byteLength" : 35776,
            "byteOffset" : 107328
        },
        {
            "buffer" : 0,
            "byteLength" : 46080,
            "byteOffset" : 143104
        },
        {
            "buffer" : 0,
            "byteLength" : 24960,
            "byteOffset" : 189184
        },
        {
            "buffer" : 0,
            "byteLength" : 24960,
            "byteOffset" : 214144
        },
        {
            "buffer" : 0,
            "byteLength" : 16640,
            "byteOffset" : 239104
        },
        {
            "buffer" : 0,
            "byteLength" : 11904,
            "byteOffset" : 255744
        },
        {
            "buffer" : 0,
            "byteLength" : 107328,
            "byteOffset" : 267648
        },
        {
            "buffer" : 0,
            "byteLength" : 107328,
            "byteOffset" : 374976
        },
        {
            "buffer" : 0,
            "byteLength" : 71552,
            "byteOffset" : 482304
        },
        {
            "buffer" : 0,
            "byteLength" : 92160,
            "byteOffset" : 553856
        },
        {
            "buffer" : 0,
            "byteLength" : 1004,
            "byteOffset" : 646016
        },
        {
            "buffer" : 0,
            "byteLength" : 4016,
            "byteOffset" : 647020
        }
    ],
    "buffers" : [
        {
            "byteLength" : 651036,
            "uri" : "data:application/octet-stream;base64,"
        }
    ]
}
